%TF.GenerationSoftware,KiCad,Pcbnew,9.0.7*%
%TF.CreationDate,2026-01-19T18:35:35-08:00*%
%TF.ProjectId,polargraph plotter,706f6c61-7267-4726-9170-6820706c6f74,rev?*%
%TF.SameCoordinates,Original*%
%TF.FileFunction,Soldermask,Top*%
%TF.FilePolarity,Negative*%
%FSLAX46Y46*%
G04 Gerber Fmt 4.6, Leading zero omitted, Abs format (unit mm)*
G04 Created by KiCad (PCBNEW 9.0.7) date 2026-01-19 18:35:35*
%MOMM*%
%LPD*%
G01*
G04 APERTURE LIST*
G04 Aperture macros list*
%AMRoundRect*
0 Rectangle with rounded corners*
0 $1 Rounding radius*
0 $2 $3 $4 $5 $6 $7 $8 $9 X,Y pos of 4 corners*
0 Add a 4 corners polygon primitive as box body*
4,1,4,$2,$3,$4,$5,$6,$7,$8,$9,$2,$3,0*
0 Add four circle primitives for the rounded corners*
1,1,$1+$1,$2,$3*
1,1,$1+$1,$4,$5*
1,1,$1+$1,$6,$7*
1,1,$1+$1,$8,$9*
0 Add four rect primitives between the rounded corners*
20,1,$1+$1,$2,$3,$4,$5,0*
20,1,$1+$1,$4,$5,$6,$7,0*
20,1,$1+$1,$6,$7,$8,$9,0*
20,1,$1+$1,$8,$9,$2,$3,0*%
G04 Aperture macros list end*
%ADD10C,1.600000*%
%ADD11R,5.020000X2.020000*%
%ADD12O,5.020000X2.020000*%
%ADD13C,2.000000*%
%ADD14RoundRect,0.250000X-0.550000X-0.550000X0.550000X-0.550000X0.550000X0.550000X-0.550000X0.550000X0*%
%ADD15RoundRect,0.250000X0.550000X-0.550000X0.550000X0.550000X-0.550000X0.550000X-0.550000X-0.550000X0*%
%ADD16R,1.600000X1.600000*%
%ADD17O,1.600000X1.600000*%
%ADD18R,1.700000X1.700000*%
%ADD19C,1.700000*%
%ADD20RoundRect,0.250000X-0.600000X-0.725000X0.600000X-0.725000X0.600000X0.725000X-0.600000X0.725000X0*%
%ADD21O,1.700000X1.950000*%
%ADD22R,1.800000X1.800000*%
%ADD23C,1.800000*%
G04 APERTURE END LIST*
D10*
%TO.C,R1*%
X124500000Y-98310000D03*
X124500000Y-90690000D03*
%TD*%
D11*
%TO.C,J5*%
X150000000Y-78210000D03*
D12*
X150000000Y-73030000D03*
%TD*%
D13*
%TO.C,SW1*%
X89250000Y-89250000D03*
X95750000Y-89250000D03*
X89250000Y-93750000D03*
X95750000Y-93750000D03*
%TD*%
D14*
%TO.C,C1*%
X151500000Y-87500000D03*
D10*
X155000000Y-87500000D03*
%TD*%
%TO.C,C2*%
X135500000Y-91500000D03*
X140500000Y-91500000D03*
%TD*%
D15*
%TO.C,U1*%
X78610000Y-68305000D03*
D10*
X81150000Y-68305000D03*
X83690000Y-68305000D03*
X86230000Y-68305000D03*
X88770000Y-68305000D03*
X91310000Y-68305000D03*
X93850000Y-68305000D03*
X96390000Y-68305000D03*
X96390000Y-60685000D03*
X93850000Y-60685000D03*
X91310000Y-60685000D03*
X88770000Y-60685000D03*
X86230000Y-60685000D03*
X83690000Y-60685000D03*
X81150000Y-60685000D03*
X78610000Y-60685000D03*
%TD*%
D13*
%TO.C,SW2*%
X89750000Y-77250000D03*
X96250000Y-77250000D03*
X89750000Y-81750000D03*
X96250000Y-81750000D03*
%TD*%
D16*
%TO.C,A1*%
X101640000Y-55790000D03*
D17*
X101640000Y-58330000D03*
X101640000Y-60870000D03*
X101640000Y-63410000D03*
X101640000Y-65950000D03*
X101640000Y-68490000D03*
X101640000Y-71030000D03*
X101640000Y-73570000D03*
X101640000Y-76110000D03*
X101640000Y-78650000D03*
X101640000Y-81190000D03*
X101640000Y-83730000D03*
X101640000Y-86270000D03*
X101640000Y-88810000D03*
X101640000Y-91350000D03*
X116880000Y-91350000D03*
X116880000Y-88810000D03*
X116880000Y-86270000D03*
X116880000Y-83730000D03*
X116880000Y-81190000D03*
X116880000Y-78650000D03*
X116880000Y-76110000D03*
X116880000Y-73570000D03*
X116880000Y-71030000D03*
X116880000Y-68490000D03*
X116880000Y-65950000D03*
X116880000Y-63410000D03*
X116880000Y-60870000D03*
X116880000Y-58330000D03*
X116880000Y-55790000D03*
%TD*%
D15*
%TO.C,U2*%
X122960000Y-87000000D03*
D10*
X125500000Y-87000000D03*
X128040000Y-87000000D03*
X130580000Y-87000000D03*
X133120000Y-87000000D03*
X135660000Y-87000000D03*
X138200000Y-87000000D03*
X140740000Y-87000000D03*
X140740000Y-79380000D03*
X138200000Y-79380000D03*
X135660000Y-79380000D03*
X133120000Y-79380000D03*
X130580000Y-79380000D03*
X128040000Y-79380000D03*
X125500000Y-79380000D03*
X122960000Y-79380000D03*
%TD*%
D18*
%TO.C,J3*%
X124500000Y-57460000D03*
D19*
X124500000Y-60000000D03*
X124500000Y-62540000D03*
%TD*%
D20*
%TO.C,J1*%
X123000000Y-72000000D03*
D21*
X125500000Y-72000000D03*
X128000000Y-72000000D03*
X130500000Y-72000000D03*
%TD*%
D22*
%TO.C,D1*%
X129960000Y-95500000D03*
D23*
X132500000Y-95500000D03*
%TD*%
D20*
%TO.C,J4*%
X86250000Y-52975000D03*
D21*
X88750000Y-52975000D03*
X91250000Y-52975000D03*
X93750000Y-52975000D03*
%TD*%
M02*
