%TF.GenerationSoftware,KiCad,Pcbnew,9.0.7*%
%TF.CreationDate,2026-01-19T18:35:35-08:00*%
%TF.ProjectId,polargraph plotter,706f6c61-7267-4726-9170-6820706c6f74,rev?*%
%TF.SameCoordinates,Original*%
%TF.FileFunction,Legend,Top*%
%TF.FilePolarity,Positive*%
%FSLAX46Y46*%
G04 Gerber Fmt 4.6, Leading zero omitted, Abs format (unit mm)*
G04 Created by KiCad (PCBNEW 9.0.7) date 2026-01-19 18:35:35*
%MOMM*%
%LPD*%
G01*
G04 APERTURE LIST*
%ADD10C,0.150000*%
%ADD11C,0.120000*%
G04 APERTURE END LIST*
D10*
X122584819Y-94666666D02*
X122108628Y-94999999D01*
X122584819Y-95238094D02*
X121584819Y-95238094D01*
X121584819Y-95238094D02*
X121584819Y-94857142D01*
X121584819Y-94857142D02*
X121632438Y-94761904D01*
X121632438Y-94761904D02*
X121680057Y-94714285D01*
X121680057Y-94714285D02*
X121775295Y-94666666D01*
X121775295Y-94666666D02*
X121918152Y-94666666D01*
X121918152Y-94666666D02*
X122013390Y-94714285D01*
X122013390Y-94714285D02*
X122061009Y-94761904D01*
X122061009Y-94761904D02*
X122108628Y-94857142D01*
X122108628Y-94857142D02*
X122108628Y-95238094D01*
X122584819Y-93714285D02*
X122584819Y-94285713D01*
X122584819Y-93999999D02*
X121584819Y-93999999D01*
X121584819Y-93999999D02*
X121727676Y-94095237D01*
X121727676Y-94095237D02*
X121822914Y-94190475D01*
X121822914Y-94190475D02*
X121870533Y-94285713D01*
X156454819Y-67743333D02*
X157169104Y-67743333D01*
X157169104Y-67743333D02*
X157311961Y-67790952D01*
X157311961Y-67790952D02*
X157407200Y-67886190D01*
X157407200Y-67886190D02*
X157454819Y-68029047D01*
X157454819Y-68029047D02*
X157454819Y-68124285D01*
X156454819Y-66790952D02*
X156454819Y-67267142D01*
X156454819Y-67267142D02*
X156931009Y-67314761D01*
X156931009Y-67314761D02*
X156883390Y-67267142D01*
X156883390Y-67267142D02*
X156835771Y-67171904D01*
X156835771Y-67171904D02*
X156835771Y-66933809D01*
X156835771Y-66933809D02*
X156883390Y-66838571D01*
X156883390Y-66838571D02*
X156931009Y-66790952D01*
X156931009Y-66790952D02*
X157026247Y-66743333D01*
X157026247Y-66743333D02*
X157264342Y-66743333D01*
X157264342Y-66743333D02*
X157359580Y-66790952D01*
X157359580Y-66790952D02*
X157407200Y-66838571D01*
X157407200Y-66838571D02*
X157454819Y-66933809D01*
X157454819Y-66933809D02*
X157454819Y-67171904D01*
X157454819Y-67171904D02*
X157407200Y-67267142D01*
X157407200Y-67267142D02*
X157359580Y-67314761D01*
X91166667Y-87657200D02*
X91309524Y-87704819D01*
X91309524Y-87704819D02*
X91547619Y-87704819D01*
X91547619Y-87704819D02*
X91642857Y-87657200D01*
X91642857Y-87657200D02*
X91690476Y-87609580D01*
X91690476Y-87609580D02*
X91738095Y-87514342D01*
X91738095Y-87514342D02*
X91738095Y-87419104D01*
X91738095Y-87419104D02*
X91690476Y-87323866D01*
X91690476Y-87323866D02*
X91642857Y-87276247D01*
X91642857Y-87276247D02*
X91547619Y-87228628D01*
X91547619Y-87228628D02*
X91357143Y-87181009D01*
X91357143Y-87181009D02*
X91261905Y-87133390D01*
X91261905Y-87133390D02*
X91214286Y-87085771D01*
X91214286Y-87085771D02*
X91166667Y-86990533D01*
X91166667Y-86990533D02*
X91166667Y-86895295D01*
X91166667Y-86895295D02*
X91214286Y-86800057D01*
X91214286Y-86800057D02*
X91261905Y-86752438D01*
X91261905Y-86752438D02*
X91357143Y-86704819D01*
X91357143Y-86704819D02*
X91595238Y-86704819D01*
X91595238Y-86704819D02*
X91738095Y-86752438D01*
X92071429Y-86704819D02*
X92309524Y-87704819D01*
X92309524Y-87704819D02*
X92500000Y-86990533D01*
X92500000Y-86990533D02*
X92690476Y-87704819D01*
X92690476Y-87704819D02*
X92928572Y-86704819D01*
X93833333Y-87704819D02*
X93261905Y-87704819D01*
X93547619Y-87704819D02*
X93547619Y-86704819D01*
X93547619Y-86704819D02*
X93452381Y-86847676D01*
X93452381Y-86847676D02*
X93357143Y-86942914D01*
X93357143Y-86942914D02*
X93261905Y-86990533D01*
X153083333Y-82609580D02*
X153035714Y-82657200D01*
X153035714Y-82657200D02*
X152892857Y-82704819D01*
X152892857Y-82704819D02*
X152797619Y-82704819D01*
X152797619Y-82704819D02*
X152654762Y-82657200D01*
X152654762Y-82657200D02*
X152559524Y-82561961D01*
X152559524Y-82561961D02*
X152511905Y-82466723D01*
X152511905Y-82466723D02*
X152464286Y-82276247D01*
X152464286Y-82276247D02*
X152464286Y-82133390D01*
X152464286Y-82133390D02*
X152511905Y-81942914D01*
X152511905Y-81942914D02*
X152559524Y-81847676D01*
X152559524Y-81847676D02*
X152654762Y-81752438D01*
X152654762Y-81752438D02*
X152797619Y-81704819D01*
X152797619Y-81704819D02*
X152892857Y-81704819D01*
X152892857Y-81704819D02*
X153035714Y-81752438D01*
X153035714Y-81752438D02*
X153083333Y-81800057D01*
X154035714Y-82704819D02*
X153464286Y-82704819D01*
X153750000Y-82704819D02*
X153750000Y-81704819D01*
X153750000Y-81704819D02*
X153654762Y-81847676D01*
X153654762Y-81847676D02*
X153559524Y-81942914D01*
X153559524Y-81942914D02*
X153464286Y-81990533D01*
X137833333Y-89359580D02*
X137785714Y-89407200D01*
X137785714Y-89407200D02*
X137642857Y-89454819D01*
X137642857Y-89454819D02*
X137547619Y-89454819D01*
X137547619Y-89454819D02*
X137404762Y-89407200D01*
X137404762Y-89407200D02*
X137309524Y-89311961D01*
X137309524Y-89311961D02*
X137261905Y-89216723D01*
X137261905Y-89216723D02*
X137214286Y-89026247D01*
X137214286Y-89026247D02*
X137214286Y-88883390D01*
X137214286Y-88883390D02*
X137261905Y-88692914D01*
X137261905Y-88692914D02*
X137309524Y-88597676D01*
X137309524Y-88597676D02*
X137404762Y-88502438D01*
X137404762Y-88502438D02*
X137547619Y-88454819D01*
X137547619Y-88454819D02*
X137642857Y-88454819D01*
X137642857Y-88454819D02*
X137785714Y-88502438D01*
X137785714Y-88502438D02*
X137833333Y-88550057D01*
X138214286Y-88550057D02*
X138261905Y-88502438D01*
X138261905Y-88502438D02*
X138357143Y-88454819D01*
X138357143Y-88454819D02*
X138595238Y-88454819D01*
X138595238Y-88454819D02*
X138690476Y-88502438D01*
X138690476Y-88502438D02*
X138738095Y-88550057D01*
X138738095Y-88550057D02*
X138785714Y-88645295D01*
X138785714Y-88645295D02*
X138785714Y-88740533D01*
X138785714Y-88740533D02*
X138738095Y-88883390D01*
X138738095Y-88883390D02*
X138166667Y-89454819D01*
X138166667Y-89454819D02*
X138785714Y-89454819D01*
X75734819Y-65256904D02*
X76544342Y-65256904D01*
X76544342Y-65256904D02*
X76639580Y-65209285D01*
X76639580Y-65209285D02*
X76687200Y-65161666D01*
X76687200Y-65161666D02*
X76734819Y-65066428D01*
X76734819Y-65066428D02*
X76734819Y-64875952D01*
X76734819Y-64875952D02*
X76687200Y-64780714D01*
X76687200Y-64780714D02*
X76639580Y-64733095D01*
X76639580Y-64733095D02*
X76544342Y-64685476D01*
X76544342Y-64685476D02*
X75734819Y-64685476D01*
X76734819Y-63685476D02*
X76734819Y-64256904D01*
X76734819Y-63971190D02*
X75734819Y-63971190D01*
X75734819Y-63971190D02*
X75877676Y-64066428D01*
X75877676Y-64066428D02*
X75972914Y-64161666D01*
X75972914Y-64161666D02*
X76020533Y-64256904D01*
X91666667Y-75657200D02*
X91809524Y-75704819D01*
X91809524Y-75704819D02*
X92047619Y-75704819D01*
X92047619Y-75704819D02*
X92142857Y-75657200D01*
X92142857Y-75657200D02*
X92190476Y-75609580D01*
X92190476Y-75609580D02*
X92238095Y-75514342D01*
X92238095Y-75514342D02*
X92238095Y-75419104D01*
X92238095Y-75419104D02*
X92190476Y-75323866D01*
X92190476Y-75323866D02*
X92142857Y-75276247D01*
X92142857Y-75276247D02*
X92047619Y-75228628D01*
X92047619Y-75228628D02*
X91857143Y-75181009D01*
X91857143Y-75181009D02*
X91761905Y-75133390D01*
X91761905Y-75133390D02*
X91714286Y-75085771D01*
X91714286Y-75085771D02*
X91666667Y-74990533D01*
X91666667Y-74990533D02*
X91666667Y-74895295D01*
X91666667Y-74895295D02*
X91714286Y-74800057D01*
X91714286Y-74800057D02*
X91761905Y-74752438D01*
X91761905Y-74752438D02*
X91857143Y-74704819D01*
X91857143Y-74704819D02*
X92095238Y-74704819D01*
X92095238Y-74704819D02*
X92238095Y-74752438D01*
X92571429Y-74704819D02*
X92809524Y-75704819D01*
X92809524Y-75704819D02*
X93000000Y-74990533D01*
X93000000Y-74990533D02*
X93190476Y-75704819D01*
X93190476Y-75704819D02*
X93428572Y-74704819D01*
X93761905Y-74800057D02*
X93809524Y-74752438D01*
X93809524Y-74752438D02*
X93904762Y-74704819D01*
X93904762Y-74704819D02*
X94142857Y-74704819D01*
X94142857Y-74704819D02*
X94238095Y-74752438D01*
X94238095Y-74752438D02*
X94285714Y-74800057D01*
X94285714Y-74800057D02*
X94333333Y-74895295D01*
X94333333Y-74895295D02*
X94333333Y-74990533D01*
X94333333Y-74990533D02*
X94285714Y-75133390D01*
X94285714Y-75133390D02*
X93714286Y-75704819D01*
X93714286Y-75704819D02*
X94333333Y-75704819D01*
X108545714Y-50879104D02*
X109021904Y-50879104D01*
X108450476Y-51164819D02*
X108783809Y-50164819D01*
X108783809Y-50164819D02*
X109117142Y-51164819D01*
X109974285Y-51164819D02*
X109402857Y-51164819D01*
X109688571Y-51164819D02*
X109688571Y-50164819D01*
X109688571Y-50164819D02*
X109593333Y-50307676D01*
X109593333Y-50307676D02*
X109498095Y-50402914D01*
X109498095Y-50402914D02*
X109402857Y-50450533D01*
X107998095Y-91954819D02*
X107998095Y-92764342D01*
X107998095Y-92764342D02*
X108045714Y-92859580D01*
X108045714Y-92859580D02*
X108093333Y-92907200D01*
X108093333Y-92907200D02*
X108188571Y-92954819D01*
X108188571Y-92954819D02*
X108379047Y-92954819D01*
X108379047Y-92954819D02*
X108474285Y-92907200D01*
X108474285Y-92907200D02*
X108521904Y-92859580D01*
X108521904Y-92859580D02*
X108569523Y-92764342D01*
X108569523Y-92764342D02*
X108569523Y-91954819D01*
X108998095Y-92907200D02*
X109140952Y-92954819D01*
X109140952Y-92954819D02*
X109379047Y-92954819D01*
X109379047Y-92954819D02*
X109474285Y-92907200D01*
X109474285Y-92907200D02*
X109521904Y-92859580D01*
X109521904Y-92859580D02*
X109569523Y-92764342D01*
X109569523Y-92764342D02*
X109569523Y-92669104D01*
X109569523Y-92669104D02*
X109521904Y-92573866D01*
X109521904Y-92573866D02*
X109474285Y-92526247D01*
X109474285Y-92526247D02*
X109379047Y-92478628D01*
X109379047Y-92478628D02*
X109188571Y-92431009D01*
X109188571Y-92431009D02*
X109093333Y-92383390D01*
X109093333Y-92383390D02*
X109045714Y-92335771D01*
X109045714Y-92335771D02*
X108998095Y-92240533D01*
X108998095Y-92240533D02*
X108998095Y-92145295D01*
X108998095Y-92145295D02*
X109045714Y-92050057D01*
X109045714Y-92050057D02*
X109093333Y-92002438D01*
X109093333Y-92002438D02*
X109188571Y-91954819D01*
X109188571Y-91954819D02*
X109426666Y-91954819D01*
X109426666Y-91954819D02*
X109569523Y-92002438D01*
X110331428Y-92431009D02*
X110474285Y-92478628D01*
X110474285Y-92478628D02*
X110521904Y-92526247D01*
X110521904Y-92526247D02*
X110569523Y-92621485D01*
X110569523Y-92621485D02*
X110569523Y-92764342D01*
X110569523Y-92764342D02*
X110521904Y-92859580D01*
X110521904Y-92859580D02*
X110474285Y-92907200D01*
X110474285Y-92907200D02*
X110379047Y-92954819D01*
X110379047Y-92954819D02*
X109998095Y-92954819D01*
X109998095Y-92954819D02*
X109998095Y-91954819D01*
X109998095Y-91954819D02*
X110331428Y-91954819D01*
X110331428Y-91954819D02*
X110426666Y-92002438D01*
X110426666Y-92002438D02*
X110474285Y-92050057D01*
X110474285Y-92050057D02*
X110521904Y-92145295D01*
X110521904Y-92145295D02*
X110521904Y-92240533D01*
X110521904Y-92240533D02*
X110474285Y-92335771D01*
X110474285Y-92335771D02*
X110426666Y-92383390D01*
X110426666Y-92383390D02*
X110331428Y-92431009D01*
X110331428Y-92431009D02*
X109998095Y-92431009D01*
X120084819Y-83951904D02*
X120894342Y-83951904D01*
X120894342Y-83951904D02*
X120989580Y-83904285D01*
X120989580Y-83904285D02*
X121037200Y-83856666D01*
X121037200Y-83856666D02*
X121084819Y-83761428D01*
X121084819Y-83761428D02*
X121084819Y-83570952D01*
X121084819Y-83570952D02*
X121037200Y-83475714D01*
X121037200Y-83475714D02*
X120989580Y-83428095D01*
X120989580Y-83428095D02*
X120894342Y-83380476D01*
X120894342Y-83380476D02*
X120084819Y-83380476D01*
X120180057Y-82951904D02*
X120132438Y-82904285D01*
X120132438Y-82904285D02*
X120084819Y-82809047D01*
X120084819Y-82809047D02*
X120084819Y-82570952D01*
X120084819Y-82570952D02*
X120132438Y-82475714D01*
X120132438Y-82475714D02*
X120180057Y-82428095D01*
X120180057Y-82428095D02*
X120275295Y-82380476D01*
X120275295Y-82380476D02*
X120370533Y-82380476D01*
X120370533Y-82380476D02*
X120513390Y-82428095D01*
X120513390Y-82428095D02*
X121084819Y-82999523D01*
X121084819Y-82999523D02*
X121084819Y-82380476D01*
X124166666Y-54534819D02*
X124166666Y-55249104D01*
X124166666Y-55249104D02*
X124119047Y-55391961D01*
X124119047Y-55391961D02*
X124023809Y-55487200D01*
X124023809Y-55487200D02*
X123880952Y-55534819D01*
X123880952Y-55534819D02*
X123785714Y-55534819D01*
X124547619Y-54534819D02*
X125166666Y-54534819D01*
X125166666Y-54534819D02*
X124833333Y-54915771D01*
X124833333Y-54915771D02*
X124976190Y-54915771D01*
X124976190Y-54915771D02*
X125071428Y-54963390D01*
X125071428Y-54963390D02*
X125119047Y-55011009D01*
X125119047Y-55011009D02*
X125166666Y-55106247D01*
X125166666Y-55106247D02*
X125166666Y-55344342D01*
X125166666Y-55344342D02*
X125119047Y-55439580D01*
X125119047Y-55439580D02*
X125071428Y-55487200D01*
X125071428Y-55487200D02*
X124976190Y-55534819D01*
X124976190Y-55534819D02*
X124690476Y-55534819D01*
X124690476Y-55534819D02*
X124595238Y-55487200D01*
X124595238Y-55487200D02*
X124547619Y-55439580D01*
X126416666Y-67904819D02*
X126416666Y-68619104D01*
X126416666Y-68619104D02*
X126369047Y-68761961D01*
X126369047Y-68761961D02*
X126273809Y-68857200D01*
X126273809Y-68857200D02*
X126130952Y-68904819D01*
X126130952Y-68904819D02*
X126035714Y-68904819D01*
X127416666Y-68904819D02*
X126845238Y-68904819D01*
X127130952Y-68904819D02*
X127130952Y-67904819D01*
X127130952Y-67904819D02*
X127035714Y-68047676D01*
X127035714Y-68047676D02*
X126940476Y-68142914D01*
X126940476Y-68142914D02*
X126845238Y-68190533D01*
X130491905Y-91994819D02*
X130491905Y-90994819D01*
X130491905Y-90994819D02*
X130730000Y-90994819D01*
X130730000Y-90994819D02*
X130872857Y-91042438D01*
X130872857Y-91042438D02*
X130968095Y-91137676D01*
X130968095Y-91137676D02*
X131015714Y-91232914D01*
X131015714Y-91232914D02*
X131063333Y-91423390D01*
X131063333Y-91423390D02*
X131063333Y-91566247D01*
X131063333Y-91566247D02*
X131015714Y-91756723D01*
X131015714Y-91756723D02*
X130968095Y-91851961D01*
X130968095Y-91851961D02*
X130872857Y-91947200D01*
X130872857Y-91947200D02*
X130730000Y-91994819D01*
X130730000Y-91994819D02*
X130491905Y-91994819D01*
X132015714Y-91994819D02*
X131444286Y-91994819D01*
X131730000Y-91994819D02*
X131730000Y-90994819D01*
X131730000Y-90994819D02*
X131634762Y-91137676D01*
X131634762Y-91137676D02*
X131539524Y-91232914D01*
X131539524Y-91232914D02*
X131444286Y-91280533D01*
X89666666Y-48879819D02*
X89666666Y-49594104D01*
X89666666Y-49594104D02*
X89619047Y-49736961D01*
X89619047Y-49736961D02*
X89523809Y-49832200D01*
X89523809Y-49832200D02*
X89380952Y-49879819D01*
X89380952Y-49879819D02*
X89285714Y-49879819D01*
X90571428Y-49213152D02*
X90571428Y-49879819D01*
X90333333Y-48832200D02*
X90095238Y-49546485D01*
X90095238Y-49546485D02*
X90714285Y-49546485D01*
D11*
%TO.C,R1*%
X123130000Y-91230000D02*
X123460000Y-91230000D01*
X123130000Y-97770000D02*
X123130000Y-91230000D01*
X123460000Y-97770000D02*
X123130000Y-97770000D01*
X125540000Y-97770000D02*
X125870000Y-97770000D01*
X125870000Y-91230000D02*
X125540000Y-91230000D01*
X125870000Y-97770000D02*
X125870000Y-91230000D01*
%TO.C,SW1*%
X89000000Y-90750000D02*
X89000000Y-92250000D01*
X90250000Y-94750000D02*
X94750000Y-94750000D01*
X94750000Y-88250000D02*
X90250000Y-88250000D01*
X96000000Y-92250000D02*
X96000000Y-90750000D01*
%TO.C,C1*%
X148840302Y-85185000D02*
X149640302Y-85185000D01*
X149240302Y-84785000D02*
X149240302Y-85585000D01*
X153250000Y-83420000D02*
X153250000Y-91580000D01*
X153290000Y-83420000D02*
X153290000Y-91580000D01*
X153330000Y-83421000D02*
X153330000Y-91579000D01*
X153370000Y-83422000D02*
X153370000Y-91578000D01*
X153410000Y-83423000D02*
X153410000Y-91577000D01*
X153450000Y-83425000D02*
X153450000Y-91575000D01*
X153490000Y-83427000D02*
X153490000Y-91573000D01*
X153530000Y-83430000D02*
X153530000Y-91570000D01*
X153570000Y-83432000D02*
X153570000Y-91568000D01*
X153610000Y-83436000D02*
X153610000Y-91564000D01*
X153650000Y-83439000D02*
X153650000Y-91561000D01*
X153690000Y-83444000D02*
X153690000Y-91556000D01*
X153730000Y-83448000D02*
X153730000Y-91552000D01*
X153770000Y-83453000D02*
X153770000Y-91547000D01*
X153810000Y-83458000D02*
X153810000Y-91542000D01*
X153850000Y-83464000D02*
X153850000Y-91536000D01*
X153890000Y-83470000D02*
X153890000Y-91530000D01*
X153930000Y-83477000D02*
X153930000Y-91523000D01*
X153970000Y-83483000D02*
X153970000Y-86460000D01*
X153970000Y-88540000D02*
X153970000Y-91517000D01*
X154010000Y-83491000D02*
X154010000Y-86460000D01*
X154010000Y-88540000D02*
X154010000Y-91509000D01*
X154050000Y-83498000D02*
X154050000Y-86460000D01*
X154050000Y-88540000D02*
X154050000Y-91502000D01*
X154090000Y-83507000D02*
X154090000Y-86460000D01*
X154090000Y-88540000D02*
X154090000Y-91493000D01*
X154130000Y-83515000D02*
X154130000Y-86460000D01*
X154130000Y-88540000D02*
X154130000Y-91485000D01*
X154170000Y-83524000D02*
X154170000Y-86460000D01*
X154170000Y-88540000D02*
X154170000Y-91476000D01*
X154210000Y-83533000D02*
X154210000Y-86460000D01*
X154210000Y-88540000D02*
X154210000Y-91467000D01*
X154250000Y-83543000D02*
X154250000Y-86460000D01*
X154250000Y-88540000D02*
X154250000Y-91457000D01*
X154290000Y-83553000D02*
X154290000Y-86460000D01*
X154290000Y-88540000D02*
X154290000Y-91447000D01*
X154330000Y-83564000D02*
X154330000Y-86460000D01*
X154330000Y-88540000D02*
X154330000Y-91436000D01*
X154370000Y-83575000D02*
X154370000Y-86460000D01*
X154370000Y-88540000D02*
X154370000Y-91425000D01*
X154410000Y-83587000D02*
X154410000Y-86460000D01*
X154410000Y-88540000D02*
X154410000Y-91413000D01*
X154450000Y-83599000D02*
X154450000Y-86460000D01*
X154450000Y-88540000D02*
X154450000Y-91401000D01*
X154490000Y-83611000D02*
X154490000Y-86460000D01*
X154490000Y-88540000D02*
X154490000Y-91389000D01*
X154530000Y-83624000D02*
X154530000Y-86460000D01*
X154530000Y-88540000D02*
X154530000Y-91376000D01*
X154570000Y-83637000D02*
X154570000Y-86460000D01*
X154570000Y-88540000D02*
X154570000Y-91363000D01*
X154610000Y-83651000D02*
X154610000Y-86460000D01*
X154610000Y-88540000D02*
X154610000Y-91349000D01*
X154650000Y-83665000D02*
X154650000Y-86460000D01*
X154650000Y-88540000D02*
X154650000Y-91335000D01*
X154690000Y-83680000D02*
X154690000Y-86460000D01*
X154690000Y-88540000D02*
X154690000Y-91320000D01*
X154730000Y-83695000D02*
X154730000Y-86460000D01*
X154730000Y-88540000D02*
X154730000Y-91305000D01*
X154770000Y-83711000D02*
X154770000Y-86460000D01*
X154770000Y-88540000D02*
X154770000Y-91289000D01*
X154810000Y-83727000D02*
X154810000Y-86460000D01*
X154810000Y-88540000D02*
X154810000Y-91273000D01*
X154850000Y-83743000D02*
X154850000Y-86460000D01*
X154850000Y-88540000D02*
X154850000Y-91257000D01*
X154890000Y-83760000D02*
X154890000Y-86460000D01*
X154890000Y-88540000D02*
X154890000Y-91240000D01*
X154930000Y-83778000D02*
X154930000Y-86460000D01*
X154930000Y-88540000D02*
X154930000Y-91222000D01*
X154970000Y-83796000D02*
X154970000Y-86460000D01*
X154970000Y-88540000D02*
X154970000Y-91204000D01*
X155010000Y-83815000D02*
X155010000Y-86460000D01*
X155010000Y-88540000D02*
X155010000Y-91185000D01*
X155050000Y-83834000D02*
X155050000Y-86460000D01*
X155050000Y-88540000D02*
X155050000Y-91166000D01*
X155090000Y-83854000D02*
X155090000Y-86460000D01*
X155090000Y-88540000D02*
X155090000Y-91146000D01*
X155130000Y-83874000D02*
X155130000Y-86460000D01*
X155130000Y-88540000D02*
X155130000Y-91126000D01*
X155170000Y-83895000D02*
X155170000Y-86460000D01*
X155170000Y-88540000D02*
X155170000Y-91105000D01*
X155210000Y-83916000D02*
X155210000Y-86460000D01*
X155210000Y-88540000D02*
X155210000Y-91084000D01*
X155250000Y-83938000D02*
X155250000Y-86460000D01*
X155250000Y-88540000D02*
X155250000Y-91062000D01*
X155290000Y-83961000D02*
X155290000Y-86460000D01*
X155290000Y-88540000D02*
X155290000Y-91039000D01*
X155330000Y-83984000D02*
X155330000Y-86460000D01*
X155330000Y-88540000D02*
X155330000Y-91016000D01*
X155370000Y-84007000D02*
X155370000Y-86460000D01*
X155370000Y-88540000D02*
X155370000Y-90993000D01*
X155410000Y-84032000D02*
X155410000Y-86460000D01*
X155410000Y-88540000D02*
X155410000Y-90968000D01*
X155450000Y-84057000D02*
X155450000Y-86460000D01*
X155450000Y-88540000D02*
X155450000Y-90943000D01*
X155490000Y-84082000D02*
X155490000Y-86460000D01*
X155490000Y-88540000D02*
X155490000Y-90918000D01*
X155530000Y-84108000D02*
X155530000Y-86460000D01*
X155530000Y-88540000D02*
X155530000Y-90892000D01*
X155570000Y-84135000D02*
X155570000Y-86460000D01*
X155570000Y-88540000D02*
X155570000Y-90865000D01*
X155610000Y-84163000D02*
X155610000Y-86460000D01*
X155610000Y-88540000D02*
X155610000Y-90837000D01*
X155650000Y-84191000D02*
X155650000Y-86460000D01*
X155650000Y-88540000D02*
X155650000Y-90809000D01*
X155690000Y-84220000D02*
X155690000Y-86460000D01*
X155690000Y-88540000D02*
X155690000Y-90780000D01*
X155730000Y-84250000D02*
X155730000Y-86460000D01*
X155730000Y-88540000D02*
X155730000Y-90750000D01*
X155770000Y-84281000D02*
X155770000Y-86460000D01*
X155770000Y-88540000D02*
X155770000Y-90719000D01*
X155810000Y-84312000D02*
X155810000Y-86460000D01*
X155810000Y-88540000D02*
X155810000Y-90688000D01*
X155850000Y-84344000D02*
X155850000Y-86460000D01*
X155850000Y-88540000D02*
X155850000Y-90656000D01*
X155890000Y-84377000D02*
X155890000Y-86460000D01*
X155890000Y-88540000D02*
X155890000Y-90623000D01*
X155930000Y-84411000D02*
X155930000Y-86460000D01*
X155930000Y-88540000D02*
X155930000Y-90589000D01*
X155970000Y-84445000D02*
X155970000Y-86460000D01*
X155970000Y-88540000D02*
X155970000Y-90555000D01*
X156010000Y-84481000D02*
X156010000Y-86460000D01*
X156010000Y-88540000D02*
X156010000Y-90519000D01*
X156050000Y-84518000D02*
X156050000Y-90482000D01*
X156090000Y-84555000D02*
X156090000Y-90445000D01*
X156130000Y-84594000D02*
X156130000Y-90406000D01*
X156170000Y-84633000D02*
X156170000Y-90367000D01*
X156210000Y-84674000D02*
X156210000Y-90326000D01*
X156250000Y-84716000D02*
X156250000Y-90284000D01*
X156290000Y-84759000D02*
X156290000Y-90241000D01*
X156330000Y-84804000D02*
X156330000Y-90196000D01*
X156370000Y-84849000D02*
X156370000Y-90151000D01*
X156410000Y-84896000D02*
X156410000Y-90104000D01*
X156450000Y-84945000D02*
X156450000Y-90055000D01*
X156490000Y-84995000D02*
X156490000Y-90005000D01*
X156530000Y-85047000D02*
X156530000Y-89953000D01*
X156570000Y-85100000D02*
X156570000Y-89900000D01*
X156610000Y-85156000D02*
X156610000Y-89844000D01*
X156650000Y-85213000D02*
X156650000Y-89787000D01*
X156690000Y-85273000D02*
X156690000Y-89727000D01*
X156730000Y-85335000D02*
X156730000Y-89665000D01*
X156770000Y-85399000D02*
X156770000Y-89601000D01*
X156810000Y-85466000D02*
X156810000Y-89534000D01*
X156850000Y-85536000D02*
X156850000Y-89464000D01*
X156890000Y-85610000D02*
X156890000Y-89390000D01*
X156930000Y-85687000D02*
X156930000Y-89313000D01*
X156970000Y-85769000D02*
X156970000Y-89231000D01*
X157010000Y-85856000D02*
X157010000Y-89144000D01*
X157050000Y-85948000D02*
X157050000Y-89052000D01*
X157090000Y-86047000D02*
X157090000Y-88953000D01*
X157130000Y-86154000D02*
X157130000Y-88846000D01*
X157170000Y-86272000D02*
X157170000Y-88728000D01*
X157210000Y-86403000D02*
X157210000Y-88597000D01*
X157250000Y-86553000D02*
X157250000Y-88447000D01*
X157290000Y-86732000D02*
X157290000Y-88268000D01*
X157330000Y-86967000D02*
X157330000Y-88033000D01*
X157370000Y-87500000D02*
G75*
G02*
X149130000Y-87500000I-4120000J0D01*
G01*
X149130000Y-87500000D02*
G75*
G02*
X157370000Y-87500000I4120000J0D01*
G01*
%TO.C,C2*%
X135380000Y-90130000D02*
X140620000Y-90130000D01*
X135380000Y-90467000D02*
X135380000Y-90130000D01*
X135380000Y-92870000D02*
X135380000Y-92533000D01*
X140620000Y-90130000D02*
X140620000Y-90467000D01*
X140620000Y-92533000D02*
X140620000Y-92870000D01*
X140620000Y-92870000D02*
X135380000Y-92870000D01*
%TO.C,U1*%
X77280000Y-61845000D02*
X77280000Y-63495000D01*
X77280000Y-65495000D02*
X77280000Y-67145000D01*
X77280000Y-67145000D02*
X97720000Y-67145000D01*
X97720000Y-61845000D02*
X77280000Y-61845000D01*
X97720000Y-67145000D02*
X97720000Y-61845000D01*
X77280000Y-63495000D02*
G75*
G02*
X77280000Y-65495000I0J-1000000D01*
G01*
%TO.C,SW2*%
X89500000Y-78750000D02*
X89500000Y-80250000D01*
X90750000Y-82750000D02*
X95250000Y-82750000D01*
X95250000Y-76250000D02*
X90750000Y-76250000D01*
X96500000Y-80250000D02*
X96500000Y-78750000D01*
%TO.C,A1*%
X100240000Y-51850000D02*
X100240000Y-54520000D01*
X100240000Y-57060000D02*
X100240000Y-95290000D01*
X100240000Y-95290000D02*
X105320000Y-95290000D01*
X102910000Y-54520000D02*
X100240000Y-54520000D01*
X102910000Y-57060000D02*
X100240000Y-57060000D01*
X102910000Y-57060000D02*
X102910000Y-54520000D01*
X102910000Y-57060000D02*
X102910000Y-92620000D01*
X102910000Y-92620000D02*
X100240000Y-92620000D01*
X105320000Y-87410000D02*
X113200000Y-87410000D01*
X105320000Y-97830000D02*
X105320000Y-87410000D01*
X113200000Y-87410000D02*
X113200000Y-97830000D01*
X113200000Y-97830000D02*
X105320000Y-97830000D01*
X115610000Y-54520000D02*
X115610000Y-92620000D01*
X115610000Y-54520000D02*
X118280000Y-54520000D01*
X115610000Y-92620000D02*
X118280000Y-92620000D01*
X118280000Y-51850000D02*
X100240000Y-51850000D01*
X118280000Y-95290000D02*
X113200000Y-95290000D01*
X118280000Y-95290000D02*
X118280000Y-51850000D01*
%TO.C,U2*%
X121630000Y-80540000D02*
X121630000Y-82190000D01*
X121630000Y-84190000D02*
X121630000Y-85840000D01*
X121630000Y-85840000D02*
X142070000Y-85840000D01*
X142070000Y-80540000D02*
X121630000Y-80540000D01*
X142070000Y-85840000D02*
X142070000Y-80540000D01*
X121630000Y-82190000D02*
G75*
G02*
X121630000Y-84190000I0J-1000000D01*
G01*
%TO.C,J3*%
X123120000Y-56080000D02*
X124500000Y-56080000D01*
X123120000Y-57460000D02*
X123120000Y-56080000D01*
X123120000Y-58730000D02*
X123120000Y-63920000D01*
X123120000Y-58730000D02*
X125880000Y-58730000D01*
X123120000Y-63920000D02*
X125880000Y-63920000D01*
X125880000Y-58730000D02*
X125880000Y-63920000D01*
%TO.C,J1*%
X120150000Y-69250000D02*
X120150000Y-70500000D01*
X120450000Y-71800000D02*
X121200000Y-71800000D01*
X121200000Y-71800000D02*
X121200000Y-74750000D01*
X121200000Y-74750000D02*
X126750000Y-74750000D01*
X121400000Y-69250000D02*
X120150000Y-69250000D01*
X132300000Y-71800000D02*
X132300000Y-74750000D01*
X132300000Y-74750000D02*
X126750000Y-74750000D01*
X133050000Y-71800000D02*
X132300000Y-71800000D01*
X120440000Y-69540000D02*
X133060000Y-69540000D01*
X133060000Y-75510000D01*
X120440000Y-75510000D01*
X120440000Y-69540000D01*
X120450000Y-69550000D02*
X122250000Y-69550000D01*
X122250000Y-70300000D01*
X120450000Y-70300000D01*
X120450000Y-69550000D01*
X123750000Y-69550000D02*
X129750000Y-69550000D01*
X129750000Y-70300000D01*
X123750000Y-70300000D01*
X123750000Y-69550000D01*
X131250000Y-69550000D02*
X133050000Y-69550000D01*
X133050000Y-70300000D01*
X131250000Y-70300000D01*
X131250000Y-69550000D01*
%TO.C,D1*%
X128670000Y-93955000D02*
X128670000Y-97045000D01*
X128670000Y-93955170D02*
G75*
G02*
X134220000Y-95500000I2560000J-1544830D01*
G01*
X134220000Y-95500000D02*
G75*
G02*
X128670000Y-97044830I-2990000J0D01*
G01*
X133730000Y-95500000D02*
G75*
G02*
X128730000Y-95500000I-2500000J0D01*
G01*
X128730000Y-95500000D02*
G75*
G02*
X133730000Y-95500000I2500000J0D01*
G01*
%TO.C,J4*%
X83400000Y-50225000D02*
X83400000Y-51475000D01*
X83700000Y-52775000D02*
X84450000Y-52775000D01*
X84450000Y-52775000D02*
X84450000Y-55725000D01*
X84450000Y-55725000D02*
X90000000Y-55725000D01*
X84650000Y-50225000D02*
X83400000Y-50225000D01*
X95550000Y-52775000D02*
X95550000Y-55725000D01*
X95550000Y-55725000D02*
X90000000Y-55725000D01*
X96300000Y-52775000D02*
X95550000Y-52775000D01*
X83690000Y-50515000D02*
X96310000Y-50515000D01*
X96310000Y-56485000D01*
X83690000Y-56485000D01*
X83690000Y-50515000D01*
X83700000Y-50525000D02*
X85500000Y-50525000D01*
X85500000Y-51275000D01*
X83700000Y-51275000D01*
X83700000Y-50525000D01*
X87000000Y-50525000D02*
X93000000Y-50525000D01*
X93000000Y-51275000D01*
X87000000Y-51275000D01*
X87000000Y-50525000D01*
X94500000Y-50525000D02*
X96300000Y-50525000D01*
X96300000Y-51275000D01*
X94500000Y-51275000D01*
X94500000Y-50525000D01*
%TD*%
M02*
