%TF.GenerationSoftware,KiCad,Pcbnew,9.0.7*%
%TF.CreationDate,2026-01-19T18:35:35-08:00*%
%TF.ProjectId,polargraph plotter,706f6c61-7267-4726-9170-6820706c6f74,rev?*%
%TF.SameCoordinates,Original*%
%TF.FileFunction,Copper,L2,Bot*%
%TF.FilePolarity,Positive*%
%FSLAX46Y46*%
G04 Gerber Fmt 4.6, Leading zero omitted, Abs format (unit mm)*
G04 Created by KiCad (PCBNEW 9.0.7) date 2026-01-19 18:35:35*
%MOMM*%
%LPD*%
G01*
G04 APERTURE LIST*
G04 Aperture macros list*
%AMRoundRect*
0 Rectangle with rounded corners*
0 $1 Rounding radius*
0 $2 $3 $4 $5 $6 $7 $8 $9 X,Y pos of 4 corners*
0 Add a 4 corners polygon primitive as box body*
4,1,4,$2,$3,$4,$5,$6,$7,$8,$9,$2,$3,0*
0 Add four circle primitives for the rounded corners*
1,1,$1+$1,$2,$3*
1,1,$1+$1,$4,$5*
1,1,$1+$1,$6,$7*
1,1,$1+$1,$8,$9*
0 Add four rect primitives between the rounded corners*
20,1,$1+$1,$2,$3,$4,$5,0*
20,1,$1+$1,$4,$5,$6,$7,0*
20,1,$1+$1,$6,$7,$8,$9,0*
20,1,$1+$1,$8,$9,$2,$3,0*%
G04 Aperture macros list end*
%TA.AperFunction,ComponentPad*%
%ADD10C,1.600000*%
%TD*%
%TA.AperFunction,ComponentPad*%
%ADD11R,5.020000X2.020000*%
%TD*%
%TA.AperFunction,ComponentPad*%
%ADD12O,5.020000X2.020000*%
%TD*%
%TA.AperFunction,ComponentPad*%
%ADD13C,2.000000*%
%TD*%
%TA.AperFunction,ComponentPad*%
%ADD14RoundRect,0.250000X-0.550000X-0.550000X0.550000X-0.550000X0.550000X0.550000X-0.550000X0.550000X0*%
%TD*%
%TA.AperFunction,ComponentPad*%
%ADD15RoundRect,0.250000X0.550000X-0.550000X0.550000X0.550000X-0.550000X0.550000X-0.550000X-0.550000X0*%
%TD*%
%TA.AperFunction,ComponentPad*%
%ADD16R,1.600000X1.600000*%
%TD*%
%TA.AperFunction,ComponentPad*%
%ADD17O,1.600000X1.600000*%
%TD*%
%TA.AperFunction,ComponentPad*%
%ADD18R,1.700000X1.700000*%
%TD*%
%TA.AperFunction,ComponentPad*%
%ADD19C,1.700000*%
%TD*%
%TA.AperFunction,ComponentPad*%
%ADD20RoundRect,0.250000X-0.600000X-0.725000X0.600000X-0.725000X0.600000X0.725000X-0.600000X0.725000X0*%
%TD*%
%TA.AperFunction,ComponentPad*%
%ADD21O,1.700000X1.950000*%
%TD*%
%TA.AperFunction,ComponentPad*%
%ADD22R,1.800000X1.800000*%
%TD*%
%TA.AperFunction,ComponentPad*%
%ADD23C,1.800000*%
%TD*%
%TA.AperFunction,Conductor*%
%ADD24C,0.600000*%
%TD*%
%TA.AperFunction,Conductor*%
%ADD25C,0.200000*%
%TD*%
G04 APERTURE END LIST*
D10*
%TO.P,R1,1*%
%TO.N,Net-(D1-A)*%
X124500000Y-98310000D03*
%TO.P,R1,2*%
%TO.N,Net-(A1-SCK)*%
X124500000Y-90690000D03*
%TD*%
D11*
%TO.P,J5,1*%
%TO.N,/+5v*%
X150000000Y-78210000D03*
D12*
%TO.P,J5,2*%
%TO.N,GND*%
X150000000Y-73030000D03*
%TD*%
D13*
%TO.P,SW1,1,1*%
%TO.N,GND*%
X89250000Y-89250000D03*
X95750000Y-89250000D03*
%TO.P,SW1,2,2*%
%TO.N,Net-(A1-D7)*%
X89250000Y-93750000D03*
X95750000Y-93750000D03*
%TD*%
D14*
%TO.P,C1,1*%
%TO.N,/+5v*%
X151500000Y-87500000D03*
D10*
%TO.P,C1,2*%
%TO.N,GND*%
X155000000Y-87500000D03*
%TD*%
%TO.P,C2,1*%
%TO.N,/+5v*%
X135500000Y-91500000D03*
%TO.P,C2,2*%
%TO.N,GND*%
X140500000Y-91500000D03*
%TD*%
D15*
%TO.P,U1,1,I1*%
%TO.N,/MOT_L_1*%
X78610000Y-68305000D03*
D10*
%TO.P,U1,2,I2*%
%TO.N,/MOT_L_2*%
X81150000Y-68305000D03*
%TO.P,U1,3,I3*%
%TO.N,/MOT_L_3*%
X83690000Y-68305000D03*
%TO.P,U1,4,I4*%
%TO.N,/MOT_L_4*%
X86230000Y-68305000D03*
%TO.P,U1,5,I5*%
%TO.N,unconnected-(U1-I5-Pad5)*%
X88770000Y-68305000D03*
%TO.P,U1,6,I6*%
%TO.N,unconnected-(U1-I6-Pad6)*%
X91310000Y-68305000D03*
%TO.P,U1,7,I7*%
%TO.N,unconnected-(U1-I7-Pad7)*%
X93850000Y-68305000D03*
%TO.P,U1,8,GND*%
%TO.N,GND*%
X96390000Y-68305000D03*
%TO.P,U1,9,COM*%
%TO.N,/+5v*%
X96390000Y-60685000D03*
%TO.P,U1,10,O7*%
%TO.N,unconnected-(U1-O7-Pad10)*%
X93850000Y-60685000D03*
%TO.P,U1,11,O6*%
%TO.N,unconnected-(U1-O6-Pad11)*%
X91310000Y-60685000D03*
%TO.P,U1,12,O5*%
%TO.N,unconnected-(U1-O5-Pad12)*%
X88770000Y-60685000D03*
%TO.P,U1,13,O4*%
%TO.N,Net-(J4-Pin_4)*%
X86230000Y-60685000D03*
%TO.P,U1,14,O3*%
%TO.N,Net-(J4-Pin_3)*%
X83690000Y-60685000D03*
%TO.P,U1,15,O2*%
%TO.N,Net-(J4-Pin_2)*%
X81150000Y-60685000D03*
%TO.P,U1,16,O1*%
%TO.N,Net-(J4-Pin_1)*%
X78610000Y-60685000D03*
%TD*%
D13*
%TO.P,SW2,1,1*%
%TO.N,GND*%
X89750000Y-77250000D03*
X96250000Y-77250000D03*
%TO.P,SW2,2,2*%
%TO.N,Net-(A1-D6)*%
X89750000Y-81750000D03*
X96250000Y-81750000D03*
%TD*%
D16*
%TO.P,A1,1,TX1*%
%TO.N,unconnected-(A1-TX1-Pad1)*%
X101640000Y-55790000D03*
D17*
%TO.P,A1,2,RX1*%
%TO.N,unconnected-(A1-RX1-Pad2)*%
X101640000Y-58330000D03*
%TO.P,A1,3,~{RESET}*%
%TO.N,unconnected-(A1-~{RESET}-Pad3)*%
X101640000Y-60870000D03*
%TO.P,A1,4,GND*%
%TO.N,GND*%
X101640000Y-63410000D03*
%TO.P,A1,5,D2*%
%TO.N,/MOT_L_1*%
X101640000Y-65950000D03*
%TO.P,A1,6,D3*%
%TO.N,/MOT_L_2*%
X101640000Y-68490000D03*
%TO.P,A1,7,D4*%
%TO.N,/MOT_L_3*%
X101640000Y-71030000D03*
%TO.P,A1,8,D5*%
%TO.N,/MOT_L_4*%
X101640000Y-73570000D03*
%TO.P,A1,9,D6*%
%TO.N,Net-(A1-D6)*%
X101640000Y-76110000D03*
%TO.P,A1,10,D7*%
%TO.N,Net-(A1-D7)*%
X101640000Y-78650000D03*
%TO.P,A1,11,D8*%
%TO.N,unconnected-(A1-D8-Pad11)*%
X101640000Y-81190000D03*
%TO.P,A1,12,D9*%
%TO.N,/SERVO_SIG*%
X101640000Y-83730000D03*
%TO.P,A1,13,D10*%
%TO.N,unconnected-(A1-D10-Pad13)*%
X101640000Y-86270000D03*
%TO.P,A1,14,MOSI*%
%TO.N,unconnected-(A1-MOSI-Pad14)*%
X101640000Y-88810000D03*
%TO.P,A1,15,MISO*%
%TO.N,unconnected-(A1-MISO-Pad15)*%
X101640000Y-91350000D03*
%TO.P,A1,16,SCK*%
%TO.N,Net-(A1-SCK)*%
X116880000Y-91350000D03*
%TO.P,A1,17,3V3*%
%TO.N,unconnected-(A1-3V3-Pad17)*%
X116880000Y-88810000D03*
%TO.P,A1,18,AREF*%
%TO.N,unconnected-(A1-AREF-Pad18)*%
X116880000Y-86270000D03*
%TO.P,A1,19,A0*%
%TO.N,/MOT_R_1*%
X116880000Y-83730000D03*
%TO.P,A1,20,A1*%
%TO.N,/MOT_R_2*%
X116880000Y-81190000D03*
%TO.P,A1,21,A2*%
%TO.N,/MOT_R_3*%
X116880000Y-78650000D03*
%TO.P,A1,22,A3*%
%TO.N,/MOT_R_4*%
X116880000Y-76110000D03*
%TO.P,A1,23,SDA/A4*%
%TO.N,unconnected-(A1-SDA{slash}A4-Pad23)*%
X116880000Y-73570000D03*
%TO.P,A1,24,SCL/A5*%
%TO.N,unconnected-(A1-SCL{slash}A5-Pad24)*%
X116880000Y-71030000D03*
%TO.P,A1,25,A6*%
%TO.N,unconnected-(A1-A6-Pad25)*%
X116880000Y-68490000D03*
%TO.P,A1,26,A7*%
%TO.N,unconnected-(A1-A7-Pad26)*%
X116880000Y-65950000D03*
%TO.P,A1,27,+5V*%
%TO.N,unconnected-(A1-+5V-Pad27)*%
X116880000Y-63410000D03*
%TO.P,A1,28,~{RESET}*%
%TO.N,unconnected-(A1-~{RESET}-Pad28)*%
X116880000Y-60870000D03*
%TO.P,A1,29,GND*%
%TO.N,GND*%
X116880000Y-58330000D03*
%TO.P,A1,30,VIN*%
%TO.N,/+5v*%
X116880000Y-55790000D03*
%TD*%
D15*
%TO.P,U2,1,I1*%
%TO.N,/MOT_R_1*%
X122960000Y-87000000D03*
D10*
%TO.P,U2,2,I2*%
%TO.N,/MOT_R_2*%
X125500000Y-87000000D03*
%TO.P,U2,3,I3*%
%TO.N,/MOT_R_3*%
X128040000Y-87000000D03*
%TO.P,U2,4,I4*%
%TO.N,/MOT_R_4*%
X130580000Y-87000000D03*
%TO.P,U2,5,I5*%
%TO.N,unconnected-(U2-I5-Pad5)*%
X133120000Y-87000000D03*
%TO.P,U2,6,I6*%
%TO.N,unconnected-(U2-I6-Pad6)*%
X135660000Y-87000000D03*
%TO.P,U2,7,I7*%
%TO.N,unconnected-(U2-I7-Pad7)*%
X138200000Y-87000000D03*
%TO.P,U2,8,GND*%
%TO.N,GND*%
X140740000Y-87000000D03*
%TO.P,U2,9,COM*%
%TO.N,/+5v*%
X140740000Y-79380000D03*
%TO.P,U2,10,O7*%
%TO.N,unconnected-(U2-O7-Pad10)*%
X138200000Y-79380000D03*
%TO.P,U2,11,O6*%
%TO.N,unconnected-(U2-O6-Pad11)*%
X135660000Y-79380000D03*
%TO.P,U2,12,O5*%
%TO.N,unconnected-(U2-O5-Pad12)*%
X133120000Y-79380000D03*
%TO.P,U2,13,O4*%
%TO.N,Net-(J1-Pin_4)*%
X130580000Y-79380000D03*
%TO.P,U2,14,O3*%
%TO.N,Net-(J1-Pin_3)*%
X128040000Y-79380000D03*
%TO.P,U2,15,O2*%
%TO.N,Net-(J1-Pin_2)*%
X125500000Y-79380000D03*
%TO.P,U2,16,O1*%
%TO.N,Net-(J1-Pin_1)*%
X122960000Y-79380000D03*
%TD*%
D18*
%TO.P,J3,1,Pin_1*%
%TO.N,/SERVO_SIG*%
X124500000Y-57460000D03*
D19*
%TO.P,J3,2,Pin_2*%
%TO.N,/+5v*%
X124500000Y-60000000D03*
%TO.P,J3,3,Pin_3*%
%TO.N,GND*%
X124500000Y-62540000D03*
%TD*%
D20*
%TO.P,J1,1,Pin_1*%
%TO.N,Net-(J1-Pin_1)*%
X123000000Y-72000000D03*
D21*
%TO.P,J1,2,Pin_2*%
%TO.N,Net-(J1-Pin_2)*%
X125500000Y-72000000D03*
%TO.P,J1,3,Pin_3*%
%TO.N,Net-(J1-Pin_3)*%
X128000000Y-72000000D03*
%TO.P,J1,4,Pin_4*%
%TO.N,Net-(J1-Pin_4)*%
X130500000Y-72000000D03*
%TD*%
D22*
%TO.P,D1,1,K*%
%TO.N,GND*%
X129960000Y-95500000D03*
D23*
%TO.P,D1,2,A*%
%TO.N,Net-(D1-A)*%
X132500000Y-95500000D03*
%TD*%
D20*
%TO.P,J4,1,Pin_1*%
%TO.N,Net-(J4-Pin_1)*%
X86250000Y-52975000D03*
D21*
%TO.P,J4,2,Pin_2*%
%TO.N,Net-(J4-Pin_2)*%
X88750000Y-52975000D03*
%TO.P,J4,3,Pin_3*%
%TO.N,Net-(J4-Pin_3)*%
X91250000Y-52975000D03*
%TO.P,J4,4,Pin_4*%
%TO.N,Net-(J4-Pin_4)*%
X93750000Y-52975000D03*
%TD*%
D24*
%TO.N,GND*%
X96250000Y-77250000D02*
X96500000Y-77000000D01*
X95750000Y-89250000D02*
X96000000Y-89500000D01*
X89250000Y-89250000D02*
X89500000Y-89000000D01*
X96390000Y-68305000D02*
X96195000Y-68500000D01*
X96195000Y-68500000D02*
X96000000Y-68500000D01*
D25*
%TO.N,/SERVO_SIG*%
X102741000Y-82629000D02*
X101640000Y-83730000D01*
X124500000Y-57460000D02*
X117111000Y-64849000D01*
X102741000Y-78531950D02*
X102741000Y-82629000D01*
X116423950Y-64849000D02*
X102741000Y-78531950D01*
X117111000Y-64849000D02*
X116423950Y-64849000D01*
%TO.N,/+5v*%
X116880000Y-55790000D02*
X113170000Y-59500000D01*
X151500000Y-86500000D02*
X150000000Y-85000000D01*
X140740000Y-68000000D02*
X128780000Y-56040000D01*
X97575000Y-59500000D02*
X96390000Y-60685000D01*
X128780000Y-56040000D02*
X128460000Y-56040000D01*
X140740000Y-79380000D02*
X134221000Y-85899000D01*
X113170000Y-59500000D02*
X97575000Y-59500000D01*
X135500000Y-88735050D02*
X135500000Y-91500000D01*
X134221000Y-87456050D02*
X135500000Y-88735050D01*
X134221000Y-85899000D02*
X134221000Y-87456050D01*
X151500000Y-87500000D02*
X151500000Y-86500000D01*
X128460000Y-56040000D02*
X124500000Y-60000000D01*
X151500000Y-89500000D02*
X142751000Y-98249000D01*
X142751000Y-98249000D02*
X142249000Y-98249000D01*
X151500000Y-87500000D02*
X151500000Y-89500000D01*
X142249000Y-98249000D02*
X135500000Y-91500000D01*
X150000000Y-85000000D02*
X150000000Y-78210000D01*
X128780000Y-56040000D02*
X117130000Y-56040000D01*
X117130000Y-56040000D02*
X116880000Y-55790000D01*
X140740000Y-79380000D02*
X140740000Y-68000000D01*
X141910000Y-78210000D02*
X140740000Y-79380000D01*
X150000000Y-78210000D02*
X141910000Y-78210000D01*
%TO.N,Net-(A1-SCK)*%
X116880000Y-91350000D02*
X123840000Y-91350000D01*
X123840000Y-91350000D02*
X124500000Y-90690000D01*
%TO.N,/MOT_L_3*%
X83690000Y-68305000D02*
X84000000Y-68615000D01*
X89671000Y-74671000D02*
X103829000Y-74671000D01*
X84000000Y-68615000D02*
X84000000Y-69000000D01*
X84000000Y-69000000D02*
X89671000Y-74671000D01*
X104000000Y-73390000D02*
X101640000Y-71030000D01*
X104000000Y-74500000D02*
X104000000Y-73390000D01*
X103829000Y-74671000D02*
X104000000Y-74500000D01*
%TO.N,/MOT_R_1*%
X116880000Y-83730000D02*
X119690000Y-83730000D01*
X119690000Y-83730000D02*
X122960000Y-87000000D01*
%TO.N,/MOT_R_2*%
X122000000Y-82500000D02*
X122000000Y-83500000D01*
X116880000Y-81190000D02*
X118190000Y-82500000D01*
X122000000Y-83500000D02*
X125500000Y-87000000D01*
X118190000Y-82500000D02*
X122000000Y-82500000D01*
%TO.N,/MOT_L_1*%
X80965000Y-65950000D02*
X101640000Y-65950000D01*
X78610000Y-68305000D02*
X80965000Y-65950000D01*
%TO.N,/MOT_L_2*%
X81150000Y-68305000D02*
X82301000Y-67154000D01*
X100304000Y-67154000D02*
X101640000Y-68490000D01*
X82301000Y-67154000D02*
X100304000Y-67154000D01*
%TO.N,Net-(A1-D6)*%
X101640000Y-76360000D02*
X101640000Y-76110000D01*
X89750000Y-81750000D02*
X96250000Y-81750000D01*
X102000000Y-76000000D02*
X101750000Y-76000000D01*
X101640000Y-76110000D02*
X101750000Y-76000000D01*
X96250000Y-81750000D02*
X101640000Y-76360000D01*
%TO.N,/MOT_L_4*%
X91495000Y-73570000D02*
X101640000Y-73570000D01*
X86230000Y-68305000D02*
X91495000Y-73570000D01*
%TO.N,/MOT_R_4*%
X124061000Y-80481000D02*
X130580000Y-87000000D01*
X121251000Y-80481000D02*
X124061000Y-80481000D01*
X116880000Y-76110000D02*
X121251000Y-80481000D01*
%TO.N,Net-(A1-D7)*%
X95750000Y-93750000D02*
X100539000Y-88961000D01*
X100539000Y-88039000D02*
X100000000Y-87500000D01*
X100000000Y-87500000D02*
X100000000Y-80290000D01*
X89250000Y-93750000D02*
X95750000Y-93750000D01*
X100000000Y-80290000D02*
X101640000Y-78650000D01*
X100539000Y-88961000D02*
X100539000Y-88039000D01*
%TO.N,/MOT_R_3*%
X119112000Y-80882000D02*
X121922000Y-80882000D01*
X116880000Y-78650000D02*
X119112000Y-80882000D01*
X121922000Y-80882000D02*
X128040000Y-87000000D01*
%TO.N,Net-(J1-Pin_4)*%
X130500000Y-79300000D02*
X130580000Y-79380000D01*
X130500000Y-72000000D02*
X130500000Y-79300000D01*
%TO.N,Net-(J1-Pin_1)*%
X123000000Y-72000000D02*
X123000000Y-79580000D01*
X123000000Y-79580000D02*
X122500000Y-80080000D01*
%TO.N,Net-(J1-Pin_3)*%
X128000000Y-79340000D02*
X128040000Y-79380000D01*
X128000000Y-72000000D02*
X128000000Y-79340000D01*
%TO.N,Net-(J1-Pin_2)*%
X125500000Y-72000000D02*
X125500000Y-79380000D01*
%TO.N,Net-(J4-Pin_4)*%
X87500000Y-59225000D02*
X87500000Y-59415000D01*
X93750000Y-52975000D02*
X87500000Y-59225000D01*
X87500000Y-59415000D02*
X86230000Y-60685000D01*
%TO.N,Net-(J4-Pin_2)*%
X88750000Y-52975000D02*
X88750000Y-53085000D01*
X88750000Y-53085000D02*
X81150000Y-60685000D01*
%TO.N,Net-(J4-Pin_1)*%
X86250000Y-52975000D02*
X86250000Y-53045000D01*
X86250000Y-53045000D02*
X78610000Y-60685000D01*
%TO.N,Net-(J4-Pin_3)*%
X91250000Y-53125000D02*
X83690000Y-60685000D01*
X91250000Y-52975000D02*
X91250000Y-53125000D01*
%TO.N,Net-(D1-A)*%
X124500000Y-98310000D02*
X126941000Y-100751000D01*
X127249000Y-100751000D02*
X132500000Y-95500000D01*
X126941000Y-100751000D02*
X127249000Y-100751000D01*
%TD*%
M02*
