M48
; DRILL file {KiCad 9.0.7} date 2026-01-19T18:21:49-0800
; FORMAT={-:-/ absolute / metric / decimal}
; #@! TF.CreationDate,2026-01-19T18:21:49-08:00
; #@! TF.GenerationSoftware,Kicad,Pcbnew,9.0.7
; #@! TF.FileFunction,Plated,1,2,PTH
FMAT,2
METRIC
; #@! TA.AperFunction,Plated,PTH,ComponentDrill
T1C0.800
; #@! TA.AperFunction,Plated,PTH,ComponentDrill
T2C0.900
; #@! TA.AperFunction,Plated,PTH,ComponentDrill
T3C0.950
; #@! TA.AperFunction,Plated,PTH,ComponentDrill
T4C1.000
; #@! TA.AperFunction,Plated,PTH,ComponentDrill
T5C1.020
; #@! TA.AperFunction,Plated,PTH,ComponentDrill
T6C1.100
%
G90
G05
T1
X78.61Y-60.685
X78.61Y-68.305
X81.15Y-60.685
X81.15Y-68.305
X83.69Y-60.685
X83.69Y-68.305
X86.23Y-60.685
X86.23Y-68.305
X88.77Y-60.685
X88.77Y-68.305
X91.31Y-60.685
X91.31Y-68.305
X93.85Y-60.685
X93.85Y-68.305
X96.39Y-60.685
X96.39Y-68.305
X122.96Y-79.38
X122.96Y-87.0
X124.5Y-90.69
X124.5Y-98.31
X125.5Y-79.38
X125.5Y-87.0
X128.04Y-79.38
X128.04Y-87.0
X130.58Y-79.38
X130.58Y-87.0
X133.12Y-79.38
X133.12Y-87.0
X135.5Y-91.5
X135.66Y-79.38
X135.66Y-87.0
X138.2Y-79.38
X138.2Y-87.0
X140.5Y-91.5
X140.74Y-79.38
X140.74Y-87.0
X151.5Y-87.5
X155.0Y-87.5
T2
X129.96Y-95.5
X132.5Y-95.5
T3
X86.25Y-52.975
X88.75Y-52.975
X91.25Y-52.975
X93.75Y-52.975
X123.0Y-72.0
X125.5Y-72.0
X128.0Y-72.0
X130.5Y-72.0
T4
X101.64Y-55.79
X101.64Y-58.33
X101.64Y-60.87
X101.64Y-63.41
X101.64Y-65.95
X101.64Y-68.49
X101.64Y-71.03
X101.64Y-73.57
X101.64Y-76.11
X101.64Y-78.65
X101.64Y-81.19
X101.64Y-83.73
X101.64Y-86.27
X101.64Y-88.81
X101.64Y-91.35
X116.88Y-55.79
X116.88Y-58.33
X116.88Y-60.87
X116.88Y-63.41
X116.88Y-65.95
X116.88Y-68.49
X116.88Y-71.03
X116.88Y-73.57
X116.88Y-76.11
X116.88Y-78.65
X116.88Y-81.19
X116.88Y-83.73
X116.88Y-86.27
X116.88Y-88.81
X116.88Y-91.35
X124.5Y-57.46
X124.5Y-60.0
X124.5Y-62.54
T6
X89.25Y-89.25
X89.25Y-93.75
X89.75Y-77.25
X89.75Y-81.75
X95.75Y-89.25
X95.75Y-93.75
X96.25Y-77.25
X96.25Y-81.75
T5
G00X151.5Y-73.03
M15
G01X148.5Y-73.03
M16
G05
G00X151.5Y-78.21
M15
G01X148.5Y-78.21
M16
G05
M30
